<svg width="20" height="20" viewBox="0 0 20 20" fill="none" xmlns="http://www.w3.org/2000/svg">
<path d="M12.295 8.33333C13.1004 8.33333 13.7534 8.98625 13.7534 9.79167V13.7492C13.7534 15.8207 12.074 17.5 10.0025 17.5C7.93095 17.5 6.25163 15.8207 6.25163 13.7492V9.79167C6.25163 8.98625 6.90455 8.33333 7.70996 8.33333H12.295ZM5.94275 8.33255C5.65155 8.68483 5.46365 9.12567 5.4255 9.60867L5.4183 9.79167V13.7492C5.4183 14.4547 5.57768 15.123 5.86241 15.72C5.58816 15.7942 5.29918 15.8333 5.00105 15.8333C3.15954 15.8333 1.66669 14.3405 1.66669 12.499V9.79167C1.66669 9.0265 2.25595 8.399 3.00541 8.33817L3.12502 8.33333L5.94275 8.33255ZM14.0623 8.33255L16.875 8.33333C17.6804 8.33333 18.3334 8.98625 18.3334 9.79167V12.5C18.3334 14.3409 16.8409 15.8333 15 15.8333C14.703 15.8333 14.415 15.7945 14.1409 15.7216C14.3914 15.1983 14.5449 14.621 14.5793 14.012L14.5867 13.7492V9.79167C14.5867 9.23725 14.3899 8.72892 14.0623 8.33255ZM10 2.5C11.3808 2.5 12.5 3.61929 12.5 5C12.5 6.38071 11.3808 7.5 10 7.5C8.61927 7.5 7.50002 6.38071 7.50002 5C7.50002 3.61929 8.61927 2.5 10 2.5ZM15.4167 3.33333C16.5673 3.33333 17.5 4.26607 17.5 5.41667C17.5 6.56726 16.5673 7.5 15.4167 7.5C14.2661 7.5 13.3334 6.56726 13.3334 5.41667C13.3334 4.26607 14.2661 3.33333 15.4167 3.33333ZM4.58335 3.33333C5.73395 3.33333 6.66669 4.26607 6.66669 5.41667C6.66669 6.56726 5.73395 7.5 4.58335 7.5C3.43276 7.5 2.50002 6.56726 2.50002 5.41667C2.50002 4.26607 3.43276 3.33333 4.58335 3.33333Z" fill="white"/>
</svg>
