<svg width="21" height="18" viewBox="0 0 21 18" fill="none" xmlns="http://www.w3.org/2000/svg">
<path d="M11.2188 16.25H1.875V6.1875H19.125V9.78125H20.5625V6.1875C20.5621 5.80639 20.4105 5.44101 20.141 5.17152C19.8715 4.90203 19.5061 4.75044 19.125 4.75H14.8125V1.875C14.8121 1.49389 14.6605 1.12851 14.391 0.859017C14.1215 0.589528 13.7561 0.437938 13.375 0.4375H7.625C7.24387 0.437881 6.87846 0.589453 6.60895 0.858954C6.33945 1.12846 6.18788 1.49387 6.1875 1.875V4.75H1.875C1.49387 4.75038 1.12846 4.90195 0.858954 5.17145C0.589453 5.44096 0.437881 5.80637 0.4375 6.1875V16.25C0.437938 16.6311 0.589528 16.9965 0.859017 17.266C1.12851 17.5355 1.49389 17.6871 1.875 17.6875H11.2188V16.25ZM7.625 1.875H13.375V4.75H7.625V1.875Z" fill="#20B96F"/>
</svg>
