<svg width="13" height="12" viewBox="0 0 13 12" fill="none" xmlns="http://www.w3.org/2000/svg">
<path fill-rule="evenodd" clip-rule="evenodd" d="M9.3015 0.667932C10.2907 0.346415 11.3532 0.887759 11.6742 1.87667C11.9956 2.86575 11.4542 3.92803 10.4653 4.24951C9.47636 4.57086 8.41411 4.02956 8.0926 3.04048C7.77141 2.05153 8.31259 0.989123 9.3015 0.667932ZM1.09289 1.87676C1.41408 0.887844 2.47616 0.3465 3.46561 0.667854C4.45452 0.989045 4.9957 2.05161 4.67418 3.04057C4.35299 4.02965 3.29054 4.57095 2.30179 4.24947C1.31239 3.92812 0.771046 2.86583 1.09289 1.87676ZM4.40657 10.5652C3.79512 11.4065 2.6176 11.593 1.77645 10.9815C0.934968 10.3703 0.748481 9.19286 1.35977 8.35154C1.97093 7.51023 3.14841 7.3237 3.98973 7.93486C4.83109 8.54615 5.01774 9.72384 4.40657 10.5652ZM8.35955 10.5652C7.74855 9.72392 7.93504 8.54623 8.77639 7.93494C9.61771 7.32362 10.795 7.51031 11.4064 8.35146C12.0178 9.19278 11.8312 10.3704 10.9898 10.9817C10.1485 11.593 8.971 11.4065 8.35955 10.5652Z" fill="#2E9D68"/>
<path d="M9.3015 0.667932L9.45595 1.14348L9.45605 1.14345L9.3015 0.667932ZM11.6742 1.87667L11.1986 2.03105L11.1987 2.03117L11.6742 1.87667ZM10.4653 4.24951L10.6198 4.72504L10.6199 4.72502L10.4653 4.24951ZM8.0926 3.04048L7.61705 3.19493L7.61709 3.19506L8.0926 3.04048ZM1.09289 1.87676L1.56835 2.03147L1.56844 2.03121L1.09289 1.87676ZM3.46561 0.667854L3.62006 0.192308L3.62005 0.192306L3.46561 0.667854ZM4.67418 3.04057L4.19868 2.88598L4.19863 2.88614L4.67418 3.04057ZM2.30179 4.24947L2.45639 3.77397L2.45625 3.77393L2.30179 4.24947ZM4.40657 10.5652L4.81104 10.8591L4.8111 10.859L4.40657 10.5652ZM1.77645 10.9815L2.07044 10.5771L2.07027 10.5769L1.77645 10.9815ZM1.35977 8.35154L1.76427 8.64545L1.7643 8.64541L1.35977 8.35154ZM3.98973 7.93486L4.28362 7.53036L4.2836 7.53033L3.98973 7.93486ZM8.35955 10.5652L7.95499 10.859L7.95509 10.8592L8.35955 10.5652ZM8.77639 7.93494L9.07029 8.33945L9.07031 8.33944L8.77639 7.93494ZM11.4064 8.35146L11.0019 8.64541L11.0019 8.64542L11.4064 8.35146ZM10.9898 10.9817L11.2837 11.3862L11.2838 11.3862L10.9898 10.9817ZM9.45605 1.14345C10.1827 0.907265 10.9629 1.30498 11.1986 2.03105L12.1498 1.72229C11.7434 0.470536 10.3988 -0.214436 9.14695 0.192417L9.45605 1.14345ZM11.1987 2.03117C11.4347 2.7576 11.0371 3.53787 10.3107 3.774L10.6199 4.72502C11.8713 4.3182 12.5564 2.9739 12.1497 1.72217L11.1987 2.03117ZM10.3108 3.77399C9.58454 4.00998 8.80429 3.61249 8.5681 2.88591L7.61709 3.19506C8.02394 4.44663 9.36818 5.13175 10.6198 4.72504L10.3108 3.77399ZM8.56814 2.88604C8.33221 2.15958 8.72981 1.37932 9.45595 1.14348L9.14705 0.192386C7.89537 0.598922 7.2106 1.94348 7.61705 3.19493L8.56814 2.88604ZM1.56844 2.03121C1.8043 1.30501 2.58427 0.907321 3.31116 1.1434L3.62005 0.192306C2.36805 -0.214321 1.02386 0.470674 0.617343 1.7223L1.56844 2.03121ZM3.31115 1.1434C4.03727 1.37924 4.43484 2.15959 4.19868 2.88598L5.14968 3.19516C5.55656 1.94364 4.87176 0.598851 3.62006 0.192308L3.31115 1.1434ZM4.19863 2.88614C3.96274 3.61254 3.18244 4.01004 2.45639 3.77397L2.14719 4.72497C3.39865 5.13186 4.74324 4.44676 5.14974 3.195L4.19863 2.88614ZM2.45625 3.77393C1.72943 3.53786 1.33203 2.75771 1.56835 2.03147L0.617428 1.72204C0.210057 2.97396 0.895346 4.31838 2.14734 4.72502L2.45625 3.77393ZM4.00211 10.2712C3.55294 10.8892 2.68811 11.0261 2.07044 10.5771L1.48245 11.3859C2.54709 12.1598 4.03731 11.9237 4.81104 10.8591L4.00211 10.2712ZM2.07027 10.5769C1.45228 10.1281 1.3153 9.26336 1.76427 8.64545L0.955267 8.05764C0.181659 9.12236 0.417655 10.6126 1.48262 11.3861L2.07027 10.5769ZM1.7643 8.64541C2.21315 8.02753 3.07795 7.89051 3.69586 8.33939L4.2836 7.53033C3.21888 6.75689 1.72871 6.99293 0.955239 8.05768L1.7643 8.64541ZM3.69584 8.33937C4.31385 8.78839 4.45088 9.65342 4.00204 10.2713L4.8111 10.859C5.58459 9.79425 5.34832 8.30391 4.28362 7.53036L3.69584 8.33937ZM8.76412 10.2714C8.31534 9.65348 8.45234 8.78842 9.07029 8.33945L8.4825 7.53044C7.41774 8.30404 7.18176 9.79436 7.95499 10.859L8.76412 10.2714ZM9.07031 8.33944C9.68813 7.89051 10.5528 8.02751 11.0019 8.64541L11.8108 8.05751C11.0372 6.99311 9.54729 6.75672 8.48248 7.53045L9.07031 8.33944ZM11.0019 8.64542C11.4509 9.26325 11.3139 10.1282 10.6959 10.5773L11.2838 11.3862C12.3484 10.6126 12.5847 9.1223 11.8108 8.05751L11.0019 8.64542ZM10.6959 10.5772C10.0781 11.0262 9.21317 10.8893 8.76402 10.2713L7.95509 10.8592C8.72883 11.9238 10.219 12.1599 11.2837 11.3862L10.6959 10.5772Z" fill="#2E9D68"/>
</svg>
