<svg width="17" height="15" viewBox="0 0 17 15" fill="none" xmlns="http://www.w3.org/2000/svg">
<path d="M16.9024 8.55741L14.7649 12.1948C14.5986 12.4778 14.3604 12.7127 14.0741 12.8759C13.7879 13.0391 13.4635 13.125 13.1334 13.125H1.32886C0.782177 13.125 0.441557 12.5363 0.71701 12.0676L2.85452 8.43023C3.02087 8.14717 3.25905 7.91232 3.54533 7.7491C3.8316 7.58589 4.15598 7.5 4.48611 7.5H16.2906C16.8373 7.5 17.1779 8.08866 16.9024 8.55741ZM4.48611 6.5625H14.1667V5.15625C14.1667 4.37959 13.5324 3.75 12.75 3.75H8.02778L6.13889 1.875H1.41667C0.634253 1.875 0 2.50459 0 3.28125V11.4271L2.03873 7.95785C2.54451 7.09717 3.48231 6.5625 4.48611 6.5625Z" fill="white"/>
</svg>
