<svg width="13" height="17" viewBox="0 0 13 17" fill="none" xmlns="http://www.w3.org/2000/svg">
<path fill-rule="evenodd" clip-rule="evenodd" d="M10.6722 3.01297H9.41667C9.21076 3.01297 9.04188 2.81403 9.04188 2.5743V1.44404C9.04188 0.647027 8.42101 0 7.65826 0H1.38048C0.620872 0 0 0.647027 0 1.44404V14.6231C0 15.4169 0.620872 16.0671 1.38048 16.0671H10.6722C11.435 16.0671 12.0527 15.4169 12.0527 14.6231V4.45702C12.0527 3.66 11.435 3.01297 10.6722 3.01297Z" fill="white"/>
<path fill-rule="evenodd" clip-rule="evenodd" d="M11.0501 14.6231C11.0501 14.8653 10.8806 15.0617 10.6722 15.0617H1.38046C1.17455 15.0617 1.00568 14.8653 1.00568 14.6231V1.44404C1.00568 1.20117 1.17455 1.00537 1.38046 1.00537H7.65824C7.86666 1.00537 8.03616 1.20117 8.03616 1.44404V2.5743C8.03616 3.36818 8.65389 4.01521 9.41664 4.01521H10.6722C10.8806 4.01521 11.0501 4.21415 11.0501 4.45702V14.6231Z" fill="white"/>
<path fill-rule="evenodd" clip-rule="evenodd" d="M2.51115 5.02051H6.53081C6.80766 5.02051 7.03052 4.79521 7.03052 4.51782C7.03052 4.24106 6.80766 4.01514 6.53081 4.01514H2.51115C2.2343 4.01514 2.0083 4.24106 2.0083 4.51782C2.0083 4.79521 2.2343 5.02051 2.51115 5.02051Z" fill="#20B96F"/>
<path fill-rule="evenodd" clip-rule="evenodd" d="M9.54163 6.69409H2.51115C2.2343 6.69409 2.0083 6.91688 2.0083 7.19678C2.0083 7.47354 2.2343 7.69632 2.51115 7.69632H9.54163C9.82162 7.69632 10.0445 7.47354 10.0445 7.19678C10.0445 6.91688 9.82162 6.69409 9.54163 6.69409Z" fill="#20B96F"/>
<path fill-rule="evenodd" clip-rule="evenodd" d="M9.54163 9.36987H2.51115C2.2343 9.36987 2.0083 9.59517 2.0083 9.87256C2.0083 10.1493 2.2343 10.3752 2.51115 10.3752H9.54163C9.82162 10.3752 10.0445 10.1493 10.0445 9.87256C10.0445 9.59517 9.82162 9.36987 9.54163 9.36987Z" fill="#20B96F"/>
<path fill-rule="evenodd" clip-rule="evenodd" d="M9.54163 12.0488H2.51115C2.2343 12.0488 2.0083 12.2748 2.0083 12.5515C2.0083 12.8283 2.2343 13.0542 2.51115 13.0542H9.54163C9.82162 13.0542 10.0445 12.8283 10.0445 12.5515C10.0445 12.2748 9.82162 12.0488 9.54163 12.0488Z" fill="#20B96F"/>
</svg>
