<svg width="18" height="18" viewBox="0 0 18 18" fill="none" xmlns="http://www.w3.org/2000/svg">
<path fill-rule="evenodd" clip-rule="evenodd" d="M6.24819 3.08925C7.86497 3.47807 9.08851 4.71999 9.36484 6.25326C9.39656 6.42851 9.55953 6.55273 9.74435 6.55273C9.76554 6.55273 9.78691 6.55116 9.80858 6.54769C10.0186 6.51482 10.1602 6.3297 10.1249 6.13431C9.79799 4.32193 8.35194 2.85377 6.44053 2.39435C6.23434 2.34466 6.0243 2.46008 5.9712 2.65221C5.91828 2.8439 6.04218 3.03973 6.24819 3.08925Z" fill="#6B6B6B" fill-opacity="0.64"/>
<path fill-rule="evenodd" clip-rule="evenodd" d="M11.7373 13.7973C11.4619 13.5217 11.31 13.1552 11.31 12.7656C11.31 12.5007 11.3804 12.2465 11.5117 12.0243L10.32 10.8329C9.22396 11.8077 7.78121 12.401 6.20223 12.401C2.78237 12.401 0 9.61942 0 6.20051C0 2.7816 2.78237 0 6.20223 0C9.62208 0 12.4045 2.7816 12.4045 6.20051C12.4045 7.77906 11.811 9.22118 10.8359 10.3171L12.0279 11.5085C12.2501 11.377 12.5042 11.3066 12.7692 11.3066C13.1591 11.3066 13.5256 11.4584 13.8011 11.734L17.4494 15.3813C17.7251 15.6569 17.877 16.0232 17.877 16.413C17.877 16.8025 17.7251 17.169 17.4494 17.4446C17.1651 17.7291 16.7914 17.8711 16.4175 17.8711C16.0439 17.8711 15.6702 17.7291 15.3857 17.4446L11.7373 13.7973ZM6.20223 0.729522C3.18477 0.729522 0.729725 3.18383 0.729725 6.20051C0.729725 9.21713 3.18477 11.6715 6.20223 11.6715C9.21974 11.6715 11.6747 9.21713 11.6747 6.20051C11.6747 3.18383 9.21974 0.729522 6.20223 0.729522ZM12.2533 13.2814L15.9016 16.9288C16.1862 17.2133 16.6491 17.213 16.9337 16.9288C17.0713 16.791 17.1472 16.6078 17.1472 16.413C17.1472 16.2182 17.0713 16.035 16.9337 15.8972L13.2854 12.2498C13.1475 12.112 12.9642 12.0361 12.7694 12.0361C12.5743 12.0361 12.3911 12.112 12.2533 12.2498C12.1154 12.3876 12.0397 12.5708 12.0397 12.7656C12.0397 12.9604 12.1154 13.1436 12.2533 13.2814Z" fill="#6B6B6B" fill-opacity="0.64"/>
</svg>
