<svg width="15" height="16" viewBox="0 0 15 16" fill="none" xmlns="http://www.w3.org/2000/svg">
<path d="M13.2254 8.78C13.2563 8.524 13.2794 8.264 13.2794 8C13.2794 7.736 13.2563 7.476 13.2254 7.22L14.8558 5.896C15.0022 5.776 15.0446 5.56 14.9483 5.384L13.4066 2.612C13.3102 2.44 13.1098 2.368 12.9364 2.44L11.017 3.244C10.62 2.928 10.1845 2.66 9.71424 2.456L9.42518 0.336C9.39049 0.148 9.23247 0 9.03976 0H5.95639C5.76368 0 5.60566 0.148 5.57482 0.336L5.28576 2.456C4.81554 2.66 4.38002 2.924 3.98303 3.244L2.06364 2.44C1.8902 2.372 1.68978 2.44 1.59342 2.612L0.0517408 5.384C-0.0446144 5.556 -0.00221805 5.772 0.144242 5.896L1.77072 7.22C1.73988 7.476 1.71676 7.736 1.71676 8C1.71676 8.264 1.73988 8.524 1.77072 8.78L0.144242 10.104C-0.00221805 10.224 -0.0446144 10.44 0.0517408 10.616L1.59342 13.388C1.68978 13.56 1.8902 13.632 2.06364 13.56L3.98303 12.756C4.38002 13.072 4.81554 13.34 5.28576 13.544L5.57482 15.664C5.60566 15.852 5.76368 16 5.95639 16H9.03976C9.23247 16 9.39049 15.852 9.42132 15.664L9.71039 13.544C10.1806 13.34 10.6161 13.076 11.0131 12.756L12.9325 13.56C13.1059 13.628 13.3064 13.56 13.4027 13.388L14.9444 10.616C15.0408 10.444 14.9984 10.228 14.8519 10.104L13.2254 8.78ZM7.49807 10.8C6.00649 10.8 4.80013 9.548 4.80013 8C4.80013 6.452 6.00649 5.2 7.49807 5.2C8.98965 5.2 10.196 6.452 10.196 8C10.196 9.548 8.98965 10.8 7.49807 10.8Z" fill="white"/>
</svg>
