<svg width="23" height="23" viewBox="0 0 23 23" fill="none" xmlns="http://www.w3.org/2000/svg">
<g clip-path="url(#clip0_1_415)">
<path d="M0.730598 6.74197C0.327113 6.74197 0 7.06909 0 7.47257V13.1751C0 13.5786 0.327113 13.9057 0.730598 13.9057C1.13408 13.9057 1.4612 13.5786 1.4612 13.1751V7.47257C1.4612 7.06909 1.13408 6.74197 0.730598 6.74197Z" fill="#20B96F"/>
<path d="M16.2123 2.48004H13.1726C12.7691 2.48004 12.442 2.80715 12.442 3.21064V3.87061L2.6583 6.77187C2.34814 6.86382 2.13539 7.14885 2.13539 7.47227V13.1721C2.1352 13.2086 2.1387 13.2455 2.14416 13.2824C2.14513 13.2892 2.14611 13.296 2.14728 13.3027C2.15273 13.3329 2.15935 13.3631 2.1688 13.3931L4.2399 20.0075C4.33771 20.3199 4.62595 20.52 4.93689 20.52C5.00908 20.52 5.08253 20.5092 5.1551 20.4865L8.1711 19.5434C8.35609 19.4855 8.51049 19.3566 8.60031 19.1849C8.69022 19.0133 8.70814 18.8129 8.65028 18.6279L7.62393 15.3481L12.4419 16.7772V17.437C12.4419 17.8405 12.769 18.1676 13.1725 18.1676H16.2122C16.6156 18.1676 16.9428 17.8405 16.9428 17.437V3.21064C16.9429 2.80715 16.6157 2.48004 16.2123 2.48004ZM7.03761 18.3668L5.41607 18.8739L3.97299 14.2652L5.93625 14.8474L7.03761 18.3668ZM6.7291 13.5586C6.72705 13.558 6.72491 13.5574 6.72286 13.5568L3.59668 12.6295V8.01768L12.4421 5.39474V15.2531L6.7291 13.5586ZM15.4817 16.7065H13.9032V16.2318V4.41603V3.94133H15.4817V16.7065Z" fill="#20B96F"/>
<path d="M21.9142 14.4141L18.753 12.8332C18.392 12.6529 17.9532 12.7989 17.7727 13.1599C17.5922 13.5208 17.7385 13.9597 18.0994 14.1402L21.2607 15.7211C21.3656 15.7736 21.477 15.7984 21.5869 15.7984C21.8549 15.7984 22.113 15.6504 22.241 15.3944C22.4214 15.0335 22.2751 14.5946 21.9142 14.4141Z" fill="#20B96F"/>
<path d="M18.4267 7.89162C18.5365 7.89162 18.6481 7.86678 18.7529 7.81427L21.9142 6.23355C22.2751 6.05304 22.4215 5.61429 22.241 5.25338C22.0605 4.89246 21.6216 4.74615 21.2608 4.92666L18.0994 6.50738C17.7385 6.68788 17.5922 7.12663 17.7727 7.48755C17.9007 7.74365 18.1588 7.89162 18.4267 7.89162Z" fill="#20B96F"/>
<path d="M22.2694 9.59323H19.6297C19.2262 9.59323 18.8991 9.92034 18.8991 10.3238C18.8991 10.7273 19.2262 11.0544 19.6297 11.0544H22.2694C22.6729 11.0544 23 10.7273 23 10.3238C23 9.92025 22.6729 9.59323 22.2694 9.59323Z" fill="#20B96F"/>
</g>
<defs>
<clipPath id="clip0_1_415">
<rect width="23" height="23" fill="white"/>
</clipPath>
</defs>
</svg>
